# xmcd
#
# Track frame offsets: 
#        150
#        12033
#        24019
#        34719
#        47614
#        58566
#        70607
#        83036
#        96328
#        107128
#        118439
#        130648
#        144185
#        156319
#        170121
#        181870
#        195355
#        210459
#        221794
#        235382
#
# Disc length: 3296 seconds
#
# Revision: 3
# Processed by: cddbd v1.5.2PL0 Copyright (c) Steve Scherf et al.
# Submitted via: ExactAudioCopy v0.99pb4
#
DISCID=0b0cde14
DTITLE=Various Artist - Blues Selection, Volume 10
DYEAR=1900
DGENRE=Blues
TTITLE0=ray charles - the sun's gonna shine again
TTITLE1=john lee hooker - let your daddy ride
TTITLE2=big joe turner - jumpin' tonight
TTITLE3=bb king - walkin' and cryin'
TTITLE4=jimmy witherspoon - i'm just a lady's man
TTITLE5=t bone walker - dream girl blues
TTITLE6=ray charles - jumpin' in the morning
TTITLE7=muddy waters - she moves me
TTITLE8=sonny terry and brownie mcghee - baby let's have some fun
TTITLE9=big joe turner - lucille
TTITLE10=t bone walker - t-bone jumps again
TTITLE11=bb king - three o'clock blues
TTITLE12=jimmy witherspoon - love my baby
TTITLE13=sonny terry and brownie mcghee - man ain't nothin' but a fool
TTITLE14=joe williams - every day
TTITLE15=ray charles - the midnight hour
TTITLE16=muddy waters - standing around crying
TTITLE17=bb king - she's dynamite
TTITLE18=joe williams - kansas city blues
TTITLE19=ray charles - mess around
EXTD=
EXTT0=
EXTT1=
EXTT2=
EXTT3=
EXTT4=
EXTT5=
EXTT6=
EXTT7=
EXTT8=
EXTT9=
EXTT10=
EXTT11=
EXTT12=
EXTT13=
EXTT14=
EXTT15=
EXTT16=
EXTT17=
EXTT18=
EXTT19=
PLAYORDER=
